HIERARCHY
ROOT simHips
{
  OFFSET -17.6763 97.9361 0.836151
  CHANNELS 6 Xposition Yposition Zposition Zrotation Xrotation Yrotation
  JOINT simSpine
  {
    OFFSET -0.000355721 21.3001 -0.016921
    CHANNELS 3 Zrotation Xrotation Yrotation
    JOINT simLeftArm
    {
      OFFSET 13.5181 21.3012 0
      CHANNELS 3 Zrotation Xrotation Yrotation
      JOINT simLeftForeArm
      {
        OFFSET 24.5783 0 0
        CHANNELS 3 Zrotation Xrotation Yrotation
        JOINT simLeftHand
        {
          OFFSET 24.5783 0 0
          CHANNELS 3 Zrotation Xrotation Yrotation
          End Site
          {
            OFFSET 7.32568 1.52588e-005 0.0169305
          }
        }
      }
    }
    JOINT simHead
    {
      OFFSET 0 27.4458 -0.00489235
      CHANNELS 3 Zrotation Xrotation Yrotation
      End Site
      {
        OFFSET 0 0 0
      }
    }
    JOINT simRightArm
    {
      OFFSET -13.5174 21.3012 0
      CHANNELS 3 Zrotation Xrotation Yrotation
      JOINT simRightForeArm
      {
        OFFSET -24.5783 0 0
        CHANNELS 3 Zrotation Xrotation Yrotation
        JOINT simRightHand
        {
          OFFSET -24.5783 0 0
          CHANNELS 3 Zrotation Xrotation Yrotation
          End Site
          {
            OFFSET -7.32568 1.52588e-005 0.0169305
          }
        }
      }
    }
  }
  JOINT simRightUpLeg
  {
    OFFSET -8.44614 -9.41038 0.835684
    CHANNELS 3 Zrotation Xrotation Yrotation
    JOINT simRightLeg
    {
      OFFSET 0 -40.9639 0
      CHANNELS 3 Zrotation Xrotation Yrotation
      JOINT simRightFoot
      {
        OFFSET 0 -40.9639 0
        CHANNELS 3 Zrotation Xrotation Yrotation
        End Site
        {
          OFFSET 0.50614 -9.67405 14.6709
        }
      }
    }
  }
  JOINT simLeftUpLeg
  {
    OFFSET 8.44614 -9.41038 0.835684
    CHANNELS 3 Zrotation Xrotation Yrotation
    JOINT simLeftLeg
    {
      OFFSET 0 -40.9639 0
      CHANNELS 3 Zrotation Xrotation Yrotation
      JOINT simLeftFoot
      {
        OFFSET 0 -40.9639 0
        CHANNELS 3 Zrotation Xrotation Yrotation
        End Site
        {
          OFFSET -0.50614 -9.67405 14.6709
        }
      }
    }
  }
}
MOTION
Frames:	12
Frame Time:	0.0333333
-17.6763 97.9361 0.836151 -6.13712e-007 0 -0 0 0 -2.13443e-007 -6.83019e-006 -1.70755e-006 -1.53679e-005 6.83019e-006 1.70755e-006 2.52407e-005 -5.14966e-023 -1.69494e-029 -9.88613e-006 1.5355e-047 -4.12181e-039 2.13443e-007 6.83019e-006 -8.53773e-007 5.12264e-006 -6.83021e-006 -5.97642e-006 -0.000174254 3.02648e-010 -0.00176037 9.83052e-006 -0.463492 8.77844 0.0354838 -0.0051309 -0.0241015 2.33215e-006 0.463385 -8.75434 0.0354702 0.998199 0.89032 -0.0631472 -4.78634e-005 12.7156 -0.0334931 -1.01785 -13.6055 -0.143753 
-17.6935 97.9348 0.818907 -6.13588e-007 0.00122346 -5.83801e-006 0.012592 0.0871313 0.0255981 -0.346601 0.576584 -0.0981885 0.0756901 0.263273 -0.177658 0.0346451 0.137651 -0.195238 -0.00838966 0.101573 0.253204 0.280699 -0.12135 -0.0175142 -0.00168195 0.0782252 -0.000174254 0.0326849 -0.00176037 -0.0816331 -0.423027 8.7979 0.0201578 -0.0051279 -0.0540031 0.00318333 0.431901 -8.79358 0.0627251 1.0254 0.873039 -0.0751726 0.00956973 12.7311 -0.0292994 -0.969126 -13.6419 -0.125102 
-17.7621 97.9301 0.796044 0.00338043 0.0115141 0.0316954 -0.00445007 0.154598 0.0401616 -0.632491 0.496853 -0.20757 0.0148255 0.31525 -0.089027 -0.0280913 0.100694 -0.293989 0.025778 0.329318 0.426553 0.569068 -0.147441 -0.0364536 0.0616661 0.193011 -0.000174255 0.13737 -0.00766655 -0.0310384 -0.383815 8.81279 -0.00264718 -0.00515449 -0.096253 -0.0140415 0.400496 -8.82745 0.0739611 1.06142 0.870223 -0.114837 0.013615 12.6729 -0.0598089 -1.08741 -13.6291 -0.110477 
-17.8349 97.9262 0.773928 0.0145127 0.0128013 0.09627 -0.0668063 0.218249 0.0512839 -0.670004 0.446579 -0.430327 -0.164379 0.416838 -7.64967e-005 -0.239374 0.0486975 -0.211895 0.11474 0.610682 0.513144 0.84802 -0.210338 -0.0603933 0.0895406 0.361493 -0.000174257 0.264444 0.0131751 -0.119594 -0.337603 8.76003 -0.0272656 -0.00516002 -0.0368215 -0.0453032 0.363947 -8.90007 0.0720046 1.10188 0.822253 -0.130093 -0.00141812 12.7351 -0.0787749 -1.07924 -13.6774 -0.139349 
-17.9132 97.9246 0.757635 0.0331419 0.0114468 0.164137 -0.114861 0.332253 0.0451141 -0.58967 0.702382 -0.650803 -0.324602 0.567881 0.000102185 -0.399676 0.0674248 -0.0642997 0.126268 0.694893 0.483958 1.02086 -0.417508 -0.0950137 0.107456 0.446771 -0.000174259 0.363923 0.000869851 -0.250925 -0.301443 8.85384 -0.0352422 -0.00168601 -0.080729 -0.0808864 0.363646 -9.01938 0.0670384 1.13996 0.812655 -0.16563 -0.00650621 12.7121 -0.110534 -1.11145 -13.6584 -0.148526 
-17.9988 97.9269 0.742249 0.0587468 0.00945226 0.238361 -0.201543 0.469276 0.0151515 -0.399296 0.979955 -0.790064 -0.45852 0.629133 8.29492e-005 -0.619283 0.0374619 0.0832815 0.132779 0.639619 0.515384 1.13424 -0.408022 -0.176157 0.095813 0.505787 -0.000174261 0.422047 0.0136919 -0.273669 -0.268533 8.81108 -0.043172 0.0149899 0.0375648 -0.11961 0.369343 -9.11772 0.0662199 1.1792 0.77906 -0.176446 -0.00482552 12.7574 -0.141971 -1.09557 -13.6627 -0.162643 
-18.0937 97.9266 0.732143 0.0745758 0.00817911 0.332438 -0.265021 0.555673 -0.00308365 -0.136292 1.02825 -0.943972 -0.530534 0.638939 -1.95806e-005 -0.748045 -0.00629775 0.0670374 0.143069 0.661417 0.523739 1.14533 -0.186534 -0.281173 0.120719 0.480557 -0.00017426 0.422574 0.0119443 -0.302687 -0.198961 8.69363 -0.0543486 0.00993689 0.204369 -0.177507 0.274735 -9.12156 0.0137614 1.2315 0.749904 -0.189756 -0.0208807 12.7589 -0.181868 -1.10766 -13.6725 -0.20001 
-18.1974 97.9207 0.729282 0.0824454 0.0264964 0.448196 -0.27303 0.559848 -0.0184028 0.078541 0.97363 -1.08219 -0.466266 0.656034 -0.000111388 -0.629429 0.0476391 0.007961 0.0712868 0.853294 0.476498 1.00797 -0.149724 -0.407612 0.105138 0.418865 -0.000174259 0.377945 0.0119586 -0.291357 -0.117757 8.57055 -0.0889412 0.0015823 0.28636 -0.221773 0.247031 -9.09938 -0.0260338 1.29926 0.707551 -0.215408 -0.0263259 12.7626 -0.219684 -1.10659 -13.6342 -0.228183 
-18.3044 97.9143 0.731475 0.101743 0.070434 0.525886 -0.247108 0.500808 -0.0337078 0.272577 1.15301 -1.12053 -0.330563 0.563634 -0.000150407 -0.479266 0.0919015 -0.0601143 -0.049775 1.04785 0.497595 0.778542 -0.12184 -0.501585 0.0632629 0.407107 -0.000174258 0.341008 0.0417443 -0.134252 -0.0570423 8.57107 -0.0763991 -0.0075644 0.205202 -0.25714 0.243323 -9.12539 -0.0508115 1.35616 0.622827 -0.233999 -0.027827 12.783 -0.242526 -1.14338 -13.5913 -0.235621 
-18.411 97.9103 0.734365 0.14493 0.1162 0.576534 -0.271953 0.446123 -0.0785393 0.473422 1.50227 -1.07639 -0.109825 0.472857 -0.156381 -0.372887 0.133285 -0.229344 -0.102441 1.10115 0.555706 0.600093 0.130322 -0.54901 0.0390622 0.250057 -0.000174256 0.215704 0.029529 -0.0106982 -0.0366711 8.54388 -0.0341502 -0.00759019 0.180074 -0.305843 0.214669 -9.19128 -0.0791277 1.38665 0.550663 -0.169384 -0.0228567 12.8009 -0.259463 -1.07657 -13.5369 -0.274292 
-18.5295 97.905 0.736203 0.18687 0.153843 0.606354 -0.288666 0.425265 -0.131556 0.600493 1.57201 -1.01369 0.101794 0.267777 -0.753758 -0.284652 0.113219 -0.294293 -0.123723 1.10039 0.498704 0.49762 0.31041 -0.504797 -0.0541238 0.234194 -4.93378e-005 0.0755617 0.0887045 0.182035 0.0103383 8.51922 -0.00652325 -0.0161424 0.146145 -0.35586 0.120738 -9.15976 -0.131539 1.41168 0.584267 -0.126758 0.00575886 12.6297 -0.299657 -1.12662 -13.4215 -0.323024 
-18.6577 97.8946 0.7357 0.209248 0.192453 0.632002 -0.245279 0.382966 -0.14888 0.573958 1.7087 -1.0649 0.318515 0.113632 -1.34045 -0.162893 0.129887 -0.287358 -0.207218 1.09361 0.322539 0.464985 0.46471 -0.478531 -0.133837 0.176136 0.151951 -0.0649923 0.121846 0.354201 0.0916194 8.55692 0.00315723 -0.0278055 1.19017e-005 -0.377595 0.0816735 -9.09142 -0.156291 1.47143 0.561749 -0.0955668 0.0243307 12.6069 -0.315023 -1.14857 -13.3598 -0.33523 
